<?xml version="1.0" standalone="no"?>
<!DOCTYPE svg PUBLIC "-//W3C//DTD SVG 20010904//EN"
 "http://www.w3.org/TR/2001/REC-SVG-20010904/DTD/svg10.dtd">
<svg version="1.0" xmlns="http://www.w3.org/2000/svg"
 width="83.000000pt" height="83.000000pt" viewBox="0 0 83.000000 83.000000"
 preserveAspectRatio="xMidYMid meet">
<metadata>
Created by potrace 1.14, written by Peter Selinger 2001-2017
</metadata>
<g transform="translate(0.000000,83.000000) scale(0.100000,-0.100000)"
fill="#000000" stroke="none">
<path d="M525 760 l-69 -69 -60 59 -61 60 -162 -163 -163 -162 118 -118 c129
-130 180 -162 278 -175 144 -20 280 55 342 188 38 81 38 193 -1 271 -21 44
-134 179 -149 179 -2 0 -35 -31 -73 -70z m125 -11 c58 -59 79 -94 95 -164 16
-66 9 -128 -19 -190 -57 -126 -184 -197 -321 -180 -84 11 -138 45 -257 163
l-108 107 147 147 148 148 52 -52 53 -52 -97 -98 -97 -98 39 -41 c62 -64 107
-89 162 -89 88 0 146 59 145 147 -1 53 -9 66 -66 123 -25 25 -46 49 -46 55 0
8 109 125 117 125 1 0 25 -23 53 -51z m-80 -250 c0 -76 -49 -129 -119 -129
-46 0 -74 15 -126 65 l-47 47 88 90 89 89 58 -61 c50 -53 57 -66 57 -101z"/>
<path d="M770 169 c12 -9 11 -10 -7 -6 -16 4 -24 -1 -29 -15 -13 -43 54 -64
70 -21 7 17 -19 53 -38 53 -6 0 -4 -5 4 -11z m15 -48 c-11 -12 -17 -12 -29 -1
-21 17 -20 30 2 30 13 0 14 -2 4 -9 -11 -7 -11 -9 2 -14 12 -5 16 0 16 16 0
18 2 19 10 7 6 -10 5 -19 -5 -29z"/>
<path d="M83 58 c2 -35 6 -44 23 -46 29 -4 54 22 46 50 -6 28 -20 38 -49 38
-20 0 -23 -4 -20 -42z m57 -2 c0 -17 -25 -38 -33 -29 -4 3 -7 19 -7 35 0 26 2
28 20 18 11 -6 20 -17 20 -24z"/>
<path d="M184 75 c9 -13 16 -33 16 -45 0 -11 5 -20 10 -20 6 0 10 7 10 15 0 9
7 29 15 45 17 33 10 40 -11 13 -13 -17 -15 -17 -25 0 -5 9 -15 17 -21 17 -6 0
-3 -11 6 -25z"/>
<path d="M270 55 c0 -40 2 -45 23 -45 29 0 43 10 49 38 8 28 -15 52 -48 52
-22 0 -24 -4 -24 -45z m60 -1 c0 -7 -9 -18 -20 -24 -18 -10 -20 -8 -20 18 0
16 3 32 7 35 8 9 33 -12 33 -29z"/>
<path d="M370 55 c0 -43 1 -45 30 -45 17 0 30 4 30 9 0 6 -9 8 -20 6 -13 -2
-20 2 -20 11 0 8 9 14 20 14 11 0 20 4 20 9 0 5 -9 7 -20 4 -14 -4 -20 0 -20
12 0 12 5 15 20 10 11 -4 20 -2 20 4 0 6 -13 11 -30 11 -29 0 -30 -2 -30 -45z"/>
<path d="M450 89 c0 -6 6 -9 14 -6 9 4 13 -3 14 -21 0 -47 2 -53 12 -47 6 4
10 14 9 23 -3 34 1 53 11 47 6 -3 10 -1 10 4 0 6 -16 11 -35 11 -19 0 -35 -5
-35 -11z"/>
<path d="M541 55 l-2 -45 37 0 c37 0 42 9 8 14 -26 4 -30 26 -5 26 12 0 21 4
21 9 0 5 -9 7 -20 4 -14 -4 -20 0 -20 10 0 10 7 15 20 12 11 -2 22 0 25 6 4 5
-9 9 -28 9 -32 0 -33 -1 -36 -45z"/>
<path d="M637 82 c-13 -15 -14 -22 -4 -42 16 -32 52 -38 67 -11 6 12 7 21 1
21 -5 0 -12 -7 -15 -15 -8 -21 -45 -2 -42 21 3 21 32 38 41 24 3 -5 11 -10 17
-10 7 0 6 6 -2 15 -17 20 -43 19 -63 -3z"/>
</g>
</svg>
